<svg width="423" height="460" viewBox="0 0 423 460" fill="none" xmlns="http://www.w3.org/2000/svg">
<path d="M38.108 153.954L37.4729 375.096L0 353.444L0.63512 132.302L38.108 153.954Z" fill="black"/>
<path d="M183.9 236V457.5L144.5 436.5L98.5607 249.917L98.0988 410.144L64.3789 390.628L65.014 169.486L112 195.5L150.18 351.25L151.5 218L183.9 236Z" fill="black"/>
<path d="M231.131 12.319C245.97 20.8644 253.072 29.7563 252.379 38.9946C251.687 48.1752 243.603 57.298 228.129 66.3054L209.537 77.1027L181.013 60.5892L201.511 48.6949C208.44 44.6531 211.904 41.0155 211.846 37.7244C211.846 34.4332 209.421 31.4308 204.687 28.6593C199.894 25.8878 194.698 24.5598 189.039 24.5598C183.381 24.5598 177.087 26.5806 170.158 30.6224L66.8625 90.556C59.9338 94.5977 56.5272 98.1776 56.6426 101.411C56.7581 104.644 59.1832 107.647 63.9756 110.361C68.7679 113.132 73.9068 114.518 79.5075 114.576C85.0505 114.633 91.3441 112.67 98.2728 108.628L125.584 92.7501L154.165 109.264L128.759 124.045C113.285 133.052 97.5799 137.729 81.7016 138.191C65.8232 138.595 50.4645 134.553 35.5677 125.95C20.7287 117.405 13.6268 108.513 14.3196 99.2746C15.0125 90.094 23.096 80.9712 38.5702 71.9639L137.998 14.1667C153.472 5.15931 169.177 0.482418 185.055 0.020502C200.934 -0.325935 216.292 3.71583 231.131 12.319Z" fill="black"/>
<path d="M388.5 105L196.66 216.486L165.885 198.702L247.818 151.067L213.463 131.205L131.53 178.84L101.275 161.402L294.5 49.5L324 66.5L240.773 115.326L275.128 135.189L358 87L388.5 105Z" fill="black"/>
<path d="M308.733 182V401.541L276.226 420.306L236.385 282.886L236.847 443.055L208.382 459.453L207.747 238.311L247.414 215.389L280.267 329.02V198L308.733 182Z" fill="black"/>
<path d="M376.346 142.5C391.878 133.55 403.599 131.53 411.625 136.553C419.593 141.576 422.653 149.508 422.711 167.407L422.769 188.886L392.86 206.15L392.802 182.477C392.802 174.451 391.301 169.717 388.298 168.158C385.296 166.599 381.312 167.292 376.346 170.121C371.38 173.008 367.396 176.934 364.452 181.9C361.507 186.865 360.006 193.39 360.063 201.358L360.41 320.763C360.41 328.789 361.911 333.466 364.914 334.909C367.916 336.353 371.9 335.66 376.866 332.773C381.831 329.886 385.815 326.017 388.76 321.167C391.705 316.317 393.206 309.85 393.148 301.825L393.033 261.061L378.656 269.375L378.54 237.792L422.826 212.213L422.999 282.366C423.057 300.266 419.131 316.317 411.163 330.463C403.253 344.667 391.531 356.215 376 365.165C360.468 374.114 348.747 376.135 340.721 371.112C332.753 366.146 328.711 354.656 328.653 336.757L328.307 221.74C328.249 203.841 332.175 187.789 340.143 173.643C348.111 159.555 360.814 151.507 376.346 142.5Z" fill="black"/>
</svg>
